# xmcd CD database file
#
# Track frame offsets:
#	150
#	13242
#	26998
#	39137
#	52004
#	64310
#	76759
#	84671
#	98065
#	107611
#	117818
#	128648
#	141124
#	153821
#	165821
#	177720
#	189585
#	202752
#	213969
#	226475
#	239159
#	251534
#
# Disc length: 3505 seconds
#
# Revision: 0
# Processed by: cddbd v1.5.2PL0 Copyright (c) Steve Scherf et al.
# Submitted via: CDex 1.70beta2
#
DISCID=220daf16
DTITLE=Big Mama Thornton - The original hound dog
DYEAR=1990
DGENRE=Blues
TTITLE0=01 Hound Dog - 01 Hound Dog
TTITLE1=02 Walking Blues - 02 Walking Blues
TTITLE2=03 My Man Called Me - 03 My Man Called Me
TTITLE3=04 Cotton Picking Blues - 04 Cotton Picking Blues
TTITLE4=05 Willie Mae's Trouble - 05 Willie Mae's Trouble
TTITLE5=06 The Big Change - 06 The Big Change
TTITLE6=07 I Smell a Rat - 07 I Smell a Rat
TTITLE7=08 I Just Can't Help Myself - 08 I Just Can't Help Myself
TTITLE8=09 They Call Me Big Mama - 09 They Call Me Big Mama
TTITLE9=10 Hard Times - 10 Hard Times
TTITLE10=11 I Ain't No Fool Either - 11 I Ain't No Fool Either
TTITLE11=12 You Don't Move Me No More - 12 You Don't Move Me No More
TTITLE12=13 Let Your Tears Fall Baby - 13 Let Your Tears Fall Baby
TTITLE13=14 I've Searched The World Over - 14 I've Searched The World Over
TTITLE14=15 Rock - A-Bye Baby
TTITLE15=16 How Come - 16 How Come
TTITLE16=17 - Nightmare
TTITLE17=18 Stop A - Hoppin' on Me
TTITLE18=19 Laugh - Laugh, Laugh
TTITLE19=20 Just Like A Dog - 20 Just Like A Dog
TTITLE20=21 The Fish - 21 The Fish
TTITLE21=22 Mischievous Boogie - 22 Mischievous Boogie
EXTD=YEAR: 1990
EXTT0=
EXTT1=
EXTT2=
EXTT3=
EXTT4=
EXTT5=
EXTT6=
EXTT7=
EXTT8=
EXTT9=
EXTT10=
EXTT11=
EXTT12=
EXTT13=
EXTT14=
EXTT15=
EXTT16=
EXTT17=
EXTT18=
EXTT19=
EXTT20=
EXTT21=
PLAYORDER=
